<svg width="28" height="28" viewBox="0 0 28 28" fill="none" xmlns="http://www.w3.org/2000/svg">
<rect x="0.5" y="0.5" width="27" height="27" rx="8.5" fill="#04080D"/>
<rect x="0.5" y="0.5" width="27" height="27" rx="8.5" stroke="#041730"/>
<g clip-path="url(#clip0_121_4237)">
<path fill-rule="evenodd" clip-rule="evenodd" d="M14 6C9.58233 6 6 9.67233 6 14.2023C6 17.8267 8.29233 20.9013 11.471 21.9857C11.871 22.0617 12.0177 21.808 12.0177 21.5913C12.0177 21.3957 12.01 20.7497 12.0067 20.0643C9.781 20.5603 9.31133 19.0963 9.31133 19.0963C8.94733 18.1483 8.423 17.8963 8.423 17.8963C7.69733 17.387 8.478 17.3977 8.478 17.3977C9.28133 17.4553 9.70433 18.2427 9.70433 18.2427C10.4177 19.4967 11.5757 19.1343 12.0323 18.9247C12.104 18.3947 12.3113 18.0327 12.54 17.828C10.7633 17.6203 8.89533 16.917 8.89533 13.774C8.89533 12.8787 9.20767 12.1467 9.71967 11.5723C9.63633 11.3657 9.36267 10.5313 9.797 9.40167C9.797 9.40167 10.469 9.18133 11.9977 10.2423C12.6357 10.0607 13.3203 9.96967 14 9.96633C14.68 9.96967 15.365 10.0607 16.0043 10.2423C17.531 9.18133 18.202 9.40167 18.202 9.40167C18.6373 10.5317 18.3633 11.3657 18.2803 11.5723C18.7937 12.1467 19.1037 12.8787 19.1037 13.774C19.1037 16.9247 17.2323 17.6183 15.4507 17.8213C15.7377 18.076 15.9933 18.575 15.9933 19.3403C15.9933 20.4377 15.9843 21.321 15.9843 21.5913C15.9843 21.8097 16.1283 22.0653 16.5337 21.9847C19.7107 20.899 22 17.8253 22 14.2023C22 9.67233 18.4183 6 14 6Z" fill="white"/>
<path fill-rule="evenodd" clip-rule="evenodd" d="M9.02993 17.7768C9.01227 17.8178 8.94993 17.8298 8.89293 17.8018C8.83493 17.7751 8.80227 17.7195 8.82093 17.6785C8.83827 17.6365 8.90093 17.6251 8.95893 17.6528C9.01693 17.6798 9.04993 17.7361 9.02993 17.7768ZM9.35393 18.1475C9.31593 18.1835 9.24127 18.1668 9.1906 18.1095C9.13827 18.0521 9.1286 17.9758 9.16727 17.9391C9.2066 17.9025 9.27893 17.9198 9.33127 17.9768C9.3836 18.0348 9.39393 18.1108 9.35393 18.1475ZM9.66927 18.6198C9.6206 18.6548 9.54027 18.6221 9.4906 18.5491C9.4416 18.4758 9.4416 18.3885 9.49193 18.3535C9.5416 18.3185 9.62027 18.3501 9.6706 18.4225C9.7196 18.4965 9.7196 18.5841 9.66927 18.6198ZM10.1016 19.0765C10.0576 19.1258 9.96427 19.1125 9.89593 19.0448C9.82593 18.9788 9.8066 18.8848 9.8506 18.8351C9.89493 18.7855 9.98893 18.7995 10.0576 18.8665C10.1273 18.9325 10.1483 19.0271 10.1016 19.0765ZM10.6976 19.3411C10.6783 19.4055 10.5883 19.4345 10.4976 19.4075C10.4076 19.3791 10.3483 19.3041 10.3663 19.2391C10.3853 19.1745 10.4756 19.1438 10.5669 19.1731C10.6569 19.2011 10.7166 19.2758 10.6976 19.3411ZM11.3526 19.3905C11.3546 19.4581 11.2779 19.5138 11.1826 19.5151C11.0869 19.5175 11.0096 19.4628 11.0086 19.3961C11.0086 19.3278 11.0839 19.2725 11.1793 19.2708C11.2746 19.2688 11.3526 19.3231 11.3526 19.3905ZM11.9616 19.2841C11.9729 19.3501 11.9069 19.4178 11.8126 19.4358C11.7196 19.4531 11.6336 19.4125 11.6219 19.3471C11.6103 19.2795 11.6776 19.2115 11.7703 19.1938C11.8649 19.1771 11.9496 19.2175 11.9616 19.2841Z" fill="white"/>
</g>
<defs>
<clipPath id="clip0_121_4237">
<rect width="16" height="16" fill="white" transform="translate(6 6)"/>
</clipPath>
</defs>
</svg>
