<svg width="96" height="31" viewBox="0 0 96 31" fill="none" xmlns="http://www.w3.org/2000/svg">
<path d="M43.26 21.08H47.74V23H36.5V21.18L42.38 13.78C42.5533 13.5533 43.3933 12.5067 44.9 10.64C43.7 10.6667 42.34 10.68 40.82 10.68H36.82V8.76H47.6V10.58L41.7 17.98C41.22 18.5933 40.3733 19.64 39.16 21.12C40.36 21.0933 41.7267 21.08 43.26 21.08ZM58.5298 17.92V18.5H50.7498C50.8432 19.5133 51.1432 20.28 51.6498 20.8C52.1565 21.3067 52.8432 21.56 53.7098 21.56C55.0165 21.56 55.8698 20.9867 56.2698 19.84H58.2898C58.0098 20.8933 57.4632 21.7267 56.6498 22.34C55.8498 22.94 54.8565 23.24 53.6698 23.24C52.1898 23.24 50.9965 22.7467 50.0898 21.76C49.1832 20.7733 48.7298 19.4667 48.7298 17.84C48.7298 16.2133 49.1832 14.9067 50.0898 13.92C50.9965 12.9333 52.1765 12.44 53.6298 12.44C55.1498 12.44 56.3498 12.9533 57.2298 13.98C58.0965 15.0067 58.5298 16.32 58.5298 17.92ZM53.6298 14.12C52.8432 14.12 52.1965 14.36 51.6898 14.84C51.1965 15.32 50.8898 16.0133 50.7698 16.92H56.4698C56.3765 16.08 56.0765 15.4067 55.5698 14.9C55.0765 14.38 54.4298 14.12 53.6298 14.12ZM64.6372 12.68V14.32H62.5572V20.52C62.5572 20.8267 62.6439 21.0533 62.8172 21.2C63.0039 21.3333 63.3105 21.4 63.7372 21.4H64.6372V23C64.1972 23.04 63.7905 23.06 63.4172 23.06C62.4439 23.06 61.7239 22.8733 61.2572 22.5C60.7905 22.1267 60.5572 21.5267 60.5572 20.7V14.32H58.8972V12.68H60.5572V9.72H62.5572V12.68H64.6372ZM71.3811 12.52C71.6744 12.52 71.8678 12.5267 71.9611 12.54V14.44H71.4611C70.4344 14.44 69.6411 14.6933 69.0811 15.2C68.5211 15.7067 68.2411 16.44 68.2411 17.4V23H66.2411V12.68H68.1611V14.52C68.8144 13.1867 69.8878 12.52 71.3811 12.52ZM81.625 21.46H82.185V23C81.8917 23.04 81.565 23.06 81.205 23.06C80.565 23.06 80.085 22.9467 79.765 22.72C79.4583 22.48 79.2717 22.1067 79.205 21.6C78.5117 22.6933 77.3917 23.24 75.845 23.24C74.7117 23.24 73.8117 22.9733 73.145 22.44C72.4917 21.8933 72.165 21.14 72.165 20.18C72.165 18.3133 73.4583 17.2467 76.045 16.98L77.565 16.82C78.0983 16.7533 78.485 16.62 78.725 16.42C78.9783 16.2067 79.105 15.9067 79.105 15.52C79.105 15 78.9383 14.6267 78.605 14.4C78.285 14.16 77.745 14.04 76.985 14.04C76.1583 14.04 75.565 14.18 75.205 14.46C74.845 14.7267 74.6383 15.2067 74.585 15.9H72.605C72.7517 13.5933 74.2117 12.44 76.985 12.44C79.705 12.44 81.065 13.4533 81.065 15.48V20.94C81.065 21.2867 81.2517 21.46 81.625 21.46ZM76.145 21.68C76.9983 21.68 77.705 21.44 78.265 20.96C78.825 20.48 79.105 19.8 79.105 18.92V17.84C78.8517 18.0533 78.425 18.1933 77.825 18.26L76.385 18.42C75.6117 18.5133 75.0583 18.7 74.725 18.98C74.3917 19.2467 74.225 19.6267 74.225 20.12C74.225 20.6133 74.385 21 74.705 21.28C75.0383 21.5467 75.5183 21.68 76.145 21.68ZM94.9267 8.76L90.1667 15.66L95.2067 23H92.7267L90.8667 20.26C90.1334 19.1933 89.4734 18.22 88.8867 17.34C87.9801 18.6733 87.3201 19.6467 86.9067 20.26L85.0067 23H82.6067L87.6867 15.72L82.8867 8.76H85.3667L87.0867 11.28C87.2467 11.5467 87.5334 11.9733 87.9467 12.56C88.1067 12.8133 88.3001 13.12 88.5267 13.48C88.7667 13.8267 88.9001 14.02 88.9267 14.06C89.0601 13.8467 89.6867 12.9133 90.8067 11.26L92.5467 8.76H94.9267Z" fill="white"/>
<path d="M1.60445 16.2473C1.60445 16.488 1.60445 16.6428 1.60445 16.7977C1.60445 18.2462 1.60021 19.6947 1.60657 21.1443C1.61081 22.121 2.02438 22.8781 2.87484 23.3723C5.10068 24.6639 7.33075 25.9481 9.5587 27.2354C10.581 27.8261 11.6064 28.4125 12.6265 29.0085C13.547 29.5472 14.4558 29.5387 15.3773 29.0053C18.5045 27.1951 21.6306 25.3829 24.7684 23.5918C25.5213 23.1623 26.1289 22.647 26.3177 21.7615C26.358 21.5738 26.3813 21.3798 26.3824 21.1889C26.3887 20.1815 26.3855 19.1751 26.3855 18.1677C26.3855 17.9938 26.3855 17.8188 26.3855 17.5781C26.8659 17.5749 27.3028 17.5643 27.7386 17.5718C27.9889 17.576 27.9889 17.7701 27.9889 17.9546C27.9878 18.8909 27.9931 19.8273 27.9857 20.7636C27.9836 21.0447 27.9539 21.3267 27.9285 21.6077C27.7959 23.0393 27.0515 24.0743 25.8309 24.7816C23.269 26.2683 20.7017 27.7444 18.1376 29.2248C17.4811 29.6034 16.8226 29.9788 16.1715 30.3679C15.5533 30.737 14.8842 30.9554 14.1737 30.9904C13.5364 31.0222 12.9044 30.9172 12.3328 30.6086C11.5428 30.1813 10.7602 29.7402 9.98181 29.2916C7.38483 27.7964 4.78997 26.297 2.19511 24.7975C1.15483 24.1962 0.426316 23.3458 0.16121 22.1528C0.0742548 21.7605 0.0138123 21.3532 0.010631 20.9524C-0.00527537 19.0447 0.00108538 17.1359 0.0021458 15.2282C0.0021458 14.7023 0.0138105 14.6906 0.532359 14.6874C1.18558 14.6832 1.83986 14.6885 2.49309 14.6853C2.66593 14.6842 2.83773 14.6694 3.04133 14.6598C3.05406 14.4753 3.07314 14.3216 3.07314 14.1678C3.07632 13.2664 3.08269 12.3661 3.07314 11.4648C3.05617 9.95261 3.68077 8.84022 5.01478 8.08414C7.88217 6.45744 10.7305 4.79894 13.5777 3.13725C13.898 2.95061 14.1334 2.94955 14.4367 3.15315C14.9022 3.46598 15.3985 3.73427 15.934 4.0524C15.6625 4.51686 15.4112 4.94634 15.1493 5.3949C14.741 5.15842 14.3911 4.95694 13.9987 4.73001C13.5682 4.97603 13.1111 5.23371 12.6573 5.49458C10.3668 6.81587 8.07729 8.13822 5.78783 9.45951C5.71148 9.50299 5.63725 9.5507 5.56196 9.59524C4.96176 9.94942 4.67438 10.4765 4.67651 11.1721C4.68075 12.6556 4.67757 14.1402 4.67757 15.6248C4.67757 15.8168 4.67757 16.0076 4.67757 16.2484C3.6532 16.2473 2.67124 16.2473 1.60445 16.2473Z" fill="#0571FE"/>
<path d="M21.8426 15.5198C21.8426 16.4562 21.8415 17.3926 21.8426 18.3279C21.8436 19.4254 21.3866 20.26 20.428 20.8124C18.7949 21.7552 17.1597 22.6947 15.532 23.6469C14.8162 24.0648 14.075 24.2768 13.2595 24.0117C13.0273 23.9364 12.8014 23.8283 12.5893 23.7063C10.9075 22.7424 9.2288 21.7721 7.55015 20.8018C6.65197 20.2822 6.16842 19.5017 6.161 18.4636C6.14721 16.4679 6.14297 14.4711 6.16206 12.4754C6.1716 11.4637 6.63925 10.6896 7.5247 10.1785C9.25001 9.18486 10.9732 8.18594 12.7006 7.1955C13.549 6.70877 14.4217 6.70346 15.2669 7.18278C17.0145 8.17321 18.7514 9.1838 20.4884 10.1923C21.4099 10.7278 21.8362 11.5517 21.8405 12.6037C21.8458 13.5771 21.8426 14.5485 21.8426 15.5198ZM13.3178 8.731C13.181 8.76387 13.1269 8.76493 13.0845 8.78932C11.5108 9.6928 9.94035 10.6005 8.36456 11.5008C7.92024 11.7543 7.73891 12.1127 7.74527 12.6291C7.76542 14.3417 7.75164 16.0543 7.75376 17.7669C7.75376 17.9185 7.76754 18.0702 7.77814 18.2632C8.18005 18.0681 8.53953 17.8835 8.90644 17.7181C9.40696 17.4922 9.70918 17.6343 9.98807 18.2101C10.1758 18.5972 10.0708 18.8655 9.62859 19.1083C9.47483 19.1932 9.31152 19.2621 9.15458 19.3416C8.99657 19.4222 8.84069 19.507 8.64133 19.612C10.2097 20.5219 11.7229 21.3872 13.2224 22.2758C13.7695 22.6003 14.2648 22.5791 14.8056 22.2567C16.1067 21.4816 17.4248 20.735 18.7355 19.9747C18.8776 19.893 19.0123 19.7987 19.1862 19.6873C18.9688 19.5611 18.8034 19.4636 18.6358 19.3692C18.4672 19.2738 18.2901 19.1921 18.1279 19.0871C17.7472 18.8422 17.674 18.5357 17.8893 18.1391C18.1947 17.5749 18.4694 17.4975 19.0483 17.8093C19.429 18.014 19.8108 18.2176 20.2424 18.4487C20.2424 18.242 20.2424 18.102 20.2424 17.962C20.2424 16.1964 20.2254 14.4297 20.2519 12.6652C20.2604 12.0735 20.0176 11.7172 19.5224 11.4383C18.1406 10.661 16.7737 9.85717 15.3994 9.06609C15.2361 8.97172 15.0654 8.89112 14.8607 8.78508C14.8607 9.23682 14.8671 9.64297 14.8597 10.048C14.8491 10.5708 14.6391 10.7691 14.1121 10.7702C13.497 10.7713 13.3337 10.6281 13.322 10.0502C13.3114 9.62918 13.3178 9.20713 13.3178 8.731Z" fill="#0571FE"/>
<path d="M26.3844 14.6779C26.3844 14.4382 26.3844 14.2654 26.3844 14.0936C26.3844 12.504 26.3696 10.9134 26.3919 9.32377C26.4014 8.62495 26.1066 8.152 25.5191 7.81585C23.9592 6.92297 22.4025 6.02373 20.8469 5.12449C20.7111 5.04602 20.5839 4.95482 20.4174 4.84559C20.673 4.40234 20.9169 3.98029 21.1788 3.52537C21.3856 3.63459 21.5712 3.72473 21.7493 3.82759C23.2763 4.7088 24.798 5.59638 26.3282 6.47123C27.0143 6.86359 27.5361 7.40228 27.7799 8.15306C27.9083 8.5486 27.9729 8.98232 27.9772 9.39906C27.9963 11.5369 27.9888 13.6747 27.9867 15.8125C27.9857 16.2696 27.9783 16.2738 27.5064 16.2759C26.6761 16.2791 25.8468 16.277 24.9666 16.277C24.9539 16.4445 24.9327 16.5951 24.9327 16.7457C24.9295 17.717 24.9338 18.6895 24.9295 19.6608C24.9274 20.2493 24.8044 20.8135 24.5457 21.3448C24.2509 21.9503 23.798 22.4115 23.2191 22.7466C20.7175 24.1941 18.2181 25.648 15.7081 27.0795C14.5586 27.7349 13.3878 27.7063 12.2426 27.0477C9.79724 25.6427 7.3572 24.227 4.91186 22.8219C3.89703 22.2398 3.23957 21.402 3.14943 20.2218C3.08581 19.384 3.13671 18.5378 3.13671 17.6587C3.6245 17.6587 4.10912 17.6587 4.63509 17.6587C4.64888 17.786 4.67539 17.9196 4.67645 18.0543C4.68175 18.6195 4.68599 19.1847 4.67645 19.7499C4.66372 20.4901 4.97973 21.0383 5.61492 21.4073C6.60536 21.9831 7.59686 22.5579 8.58836 23.1305C9.97752 23.9322 11.3677 24.7328 12.7569 25.5334C12.8788 25.6034 13.0029 25.6713 13.1259 25.7413C13.7123 26.0732 14.2998 26.0732 14.8841 25.7381C16.1683 25.0011 17.4514 24.262 18.7345 23.5239C19.8798 22.8654 21.025 22.2058 22.1703 21.5452C22.2774 21.4837 22.3845 21.4211 22.4874 21.3532C23.0261 20.9991 23.3198 20.5113 23.3166 19.8527C23.3124 18.6513 23.3156 17.4498 23.3156 16.2484C23.3156 15.8952 23.3134 15.5421 23.3166 15.1879C23.3209 14.6832 23.323 14.6789 23.8097 14.6757C24.4629 14.6726 25.1172 14.6757 25.7704 14.6757C25.9475 14.6779 26.1236 14.6779 26.3844 14.6779Z" fill="#0571FE"/>
<path d="M16.3253 6.04176C16.8343 5.16691 17.3285 4.31644 17.8396 3.43841C17.7018 3.34085 17.5968 3.25284 17.4812 3.18497C16.7654 2.76929 16.0443 2.36102 15.3285 1.94427C14.4441 1.42891 13.5629 1.42572 12.6753 1.93791C9.43892 3.80638 6.20251 5.67273 2.96609 7.54014C2.0467 8.07035 1.58329 8.85613 1.60238 9.92928C1.61829 10.8656 1.60662 11.802 1.6045 12.7383C1.6045 12.9101 1.58965 13.083 1.58011 13.2802C1.0605 13.2802 0.574822 13.2802 0.0541532 13.2802C0.0382468 13.1286 0.011739 12.9929 0.0106786 12.8571C0.00643688 11.9208 7.32918e-05 10.9844 0.00961713 10.048C0.0223422 8.80205 0.371224 7.68012 1.31712 6.81481C1.60132 6.55606 1.92581 6.33126 2.25878 6.1372C5.39976 4.31433 8.55029 2.51054 11.687 0.682366C12.5385 0.186087 13.4304 -0.0928068 14.4102 0.0280817C14.8577 0.0832239 15.3328 0.175481 15.7219 0.386506C17.1153 1.14259 18.478 1.95594 19.8512 2.74807C19.8799 2.76504 19.9 2.79791 19.9774 2.88063C19.4928 3.72154 18.9955 4.58367 18.478 5.48079C19.2871 5.95056 20.0729 6.41079 20.8618 6.86571C22.0824 7.57089 23.2997 8.28138 24.5298 8.96959C24.831 9.1382 24.9424 9.33438 24.9349 9.6822C24.9116 10.7596 24.9275 11.837 24.9254 12.9144C24.9254 13.0533 24.9105 13.1912 24.9021 13.3619C24.3856 13.4478 23.8851 13.417 23.3135 13.3778C23.3135 13.1519 23.3135 12.9462 23.3135 12.7394C23.3135 12.0151 23.2891 11.2898 23.3231 10.5666C23.3411 10.188 23.1863 10.0024 22.8788 9.82748C20.8268 8.65889 18.7845 7.47333 16.7389 6.29308C16.6042 6.21885 16.4727 6.13296 16.3253 6.04176Z" fill="#0571FE"/>
<path d="M15.0433 17.5156C14.2766 17.5156 13.563 17.5156 12.8291 17.5156C12.9225 16.6948 13.0009 15.908 13.1091 15.1254C13.1409 14.8984 13.0253 14.7648 12.9288 14.5983C12.6998 14.2028 12.6892 13.7977 12.9299 13.399C13.16 13.0162 13.5015 12.838 13.9447 12.8476C14.792 12.8645 15.3551 13.7638 14.9479 14.5082C14.7697 14.8327 14.7665 15.1169 14.8206 15.4626C14.9245 16.12 14.968 16.7881 15.0433 17.5156Z" fill="#0571FE"/>
</svg>
