<svg width="28" height="28" viewBox="0 0 28 28" fill="none" xmlns="http://www.w3.org/2000/svg">
<rect x="0.5" y="0.5" width="27" height="27" rx="8.5" fill="#04080D"/>
<rect x="0.5" y="0.5" width="27" height="27" rx="8.5" stroke="#041730"/>
<path d="M21.1465 9.06965L18.9772 19.3C18.8136 20.022 18.3868 20.2016 17.7802 19.8616L14.475 17.4259L12.8802 18.9598C12.7037 19.1363 12.556 19.284 12.2159 19.284L12.4534 15.9176L18.5793 10.3821C18.8457 10.1447 18.5216 10.0131 18.1654 10.2506L10.5922 15.0191L7.33183 13.9987C6.62264 13.7772 6.60983 13.2895 7.47942 12.9493L20.232 8.03637C20.8224 7.81496 21.339 8.1679 21.1465 9.06965Z" fill="white"/>
</svg>
