<svg width="28" height="28" viewBox="0 0 28 28" fill="none" xmlns="http://www.w3.org/2000/svg">
<rect x="0.5" y="0.5" width="27" height="27" rx="8.5" fill="#04080D"/>
<rect x="0.5" y="0.5" width="27" height="27" rx="8.5" stroke="#041730"/>
<path d="M11.3588 8.4458C10.8505 8.4458 9.31791 9.06753 9.04295 9.19178C8.76799 9.31603 8.4628 9.7039 8.1165 10.344C7.76974 10.9842 7.49147 11.7325 7.03935 12.8333C6.5877 13.9341 6.48235 16.0563 6.49747 16.704C6.51258 17.3517 6.58676 17.8577 7.25053 18.2408C7.91383 18.6235 8.5006 19.0241 9.11807 19.2651C9.73602 19.506 10.1574 19.6794 10.4437 19.4384C10.73 19.1975 10.9185 18.7756 10.9185 18.7756C10.9185 18.7756 11.1897 18.3991 10.6776 18.1733C10.1655 17.947 9.9094 17.7887 9.9316 17.5553C9.95428 17.3219 9.9916 17.1939 10.1196 17.2241C10.2477 17.2544 10.5496 17.7963 11.7094 18.0448C12.8692 18.2933 13.9998 18.2559 13.9998 18.2559C13.9998 18.2559 15.1308 18.2937 16.2906 18.0448C17.4504 17.7963 17.7518 17.2544 17.8799 17.2241C18.0079 17.1939 18.0452 17.3219 18.0679 17.5548C18.0906 17.7887 17.8345 17.947 17.3224 18.1733C16.8103 18.3991 17.0815 18.7756 17.0815 18.7756C17.0815 18.7756 17.27 19.197 17.5563 19.4384C17.8421 19.6794 18.264 19.506 18.8814 19.2651C19.4989 19.0241 20.0862 18.624 20.7495 18.2408C21.4132 17.8577 21.4874 17.3517 21.5025 16.704C21.5176 16.0567 21.4123 13.9341 20.9602 12.8333C20.5085 11.7325 20.2298 10.9842 19.883 10.344C19.5372 9.7039 19.2315 9.31603 18.957 9.19131C18.6821 9.06753 17.149 8.4458 16.6407 8.4458C16.1323 8.4458 15.9821 8.80013 15.9821 8.80013L15.8049 9.19178C15.8049 9.19178 14.6144 8.96548 14.0078 8.96501C13.4012 8.96501 12.195 9.19178 12.195 9.19178L12.0179 8.79966C12.0179 8.79966 11.8676 8.4458 11.3588 8.4458ZM11.4141 13.1456H11.433C12.1743 13.1456 12.7747 13.7943 12.7747 14.5941C12.7747 15.3944 12.1743 16.0426 11.433 16.0426C10.6918 16.0426 10.0913 15.3944 10.0913 14.5941C10.0908 13.8018 10.6804 13.1565 11.4141 13.1456ZM16.567 13.1456H16.5859C17.3196 13.1565 17.9087 13.8023 17.9087 14.5941C17.9087 15.3944 17.3082 16.0426 16.567 16.0426C15.8252 16.0426 15.2253 15.3944 15.2253 14.5941C15.2253 13.7943 15.8252 13.1456 16.567 13.1456Z" fill="white"/>
</svg>
