<svg width="28" height="28" viewBox="0 0 28 28" fill="none" xmlns="http://www.w3.org/2000/svg">
<rect x="0.5" y="0.5" width="27" height="27" rx="8.5" fill="#04080D"/>
<rect x="0.5" y="0.5" width="27" height="27" rx="8.5" stroke="#041730"/>
<path d="M20.9694 14.027C20.969 13.6013 20.7997 13.1932 20.4986 12.8922C20.1976 12.5912 19.7895 12.4218 19.3638 12.4214C18.9739 12.4209 18.5975 12.5634 18.3056 12.8218C17.2437 12.1423 15.8268 11.7142 14.2641 11.668L15.2204 8.39741L17.5682 8.83367C17.5682 8.85286 17.5643 8.87092 17.5654 8.89011C17.5794 9.15874 17.6994 9.41085 17.8991 9.59114C18.0987 9.77143 18.3617 9.86517 18.6304 9.8518C18.899 9.83771 19.151 9.71769 19.3312 9.51805C19.5115 9.31841 19.6052 9.05545 19.5918 8.78683C19.5778 8.51819 19.4578 8.26608 19.2581 8.08579C19.0585 7.90551 18.7955 7.81176 18.5268 7.82513C18.3557 7.83424 18.1896 7.88666 18.0443 7.97748C17.8989 8.06829 17.779 8.19453 17.6958 8.34436L17.6949 8.34407L14.8657 7.81836L13.7389 11.6674C12.1722 11.7089 10.7509 12.1347 9.68449 12.8128C9.39385 12.5599 9.02143 12.4208 8.63616 12.4214C8.21048 12.4219 7.80238 12.5912 7.50138 12.8923C7.20037 13.1933 7.03104 13.6014 7.03052 14.027C7.03052 14.5745 7.31242 15.0796 7.769 15.3742C7.74046 15.5354 7.72583 15.6987 7.72526 15.8624C7.72526 18.1797 10.5347 20.0653 13.9881 20.0653C17.4415 20.0653 20.2504 18.1797 20.2504 15.8621C20.2504 15.7018 20.2357 15.5438 20.2095 15.388C20.4413 15.2443 20.6326 15.044 20.7655 14.8059C20.8984 14.5678 20.9688 14.2997 20.9694 14.027ZM11.0116 15.1197C11.0116 14.9901 11.0372 14.8618 11.0868 14.7421C11.1364 14.6224 11.2092 14.5137 11.3008 14.4221C11.3924 14.3305 11.5012 14.2578 11.621 14.2083C11.7407 14.1587 11.869 14.1332 11.9986 14.1333C12.1281 14.1333 12.2564 14.1589 12.3761 14.2085C12.4958 14.2581 12.6046 14.3308 12.6962 14.4225C12.7878 14.5141 12.8604 14.6229 12.9099 14.7426C12.9595 14.8623 12.985 14.9907 12.9849 15.1202C12.9849 15.3819 12.8808 15.6328 12.6958 15.8178C12.5107 16.0028 12.2597 16.1067 11.998 16.1066C11.7363 16.1065 11.4854 16.0025 11.3004 15.8174C11.1154 15.6323 11.0115 15.3813 11.0116 15.1197ZM16.3139 17.7886C16.2846 17.8191 15.5765 18.5395 13.9765 18.5395C12.3681 18.5395 11.7247 17.8092 11.6985 17.7781C11.6578 17.7272 11.6384 17.6624 11.6444 17.5975C11.6504 17.5326 11.6813 17.4725 11.7307 17.4299C11.78 17.3872 11.844 17.3654 11.9091 17.3688C11.9742 17.3723 12.0355 17.4009 12.08 17.4486C12.0946 17.4644 12.6314 18.0352 13.9763 18.0352C15.3449 18.0352 15.9448 17.444 15.951 17.4384C15.9984 17.3951 16.0606 17.3714 16.1248 17.3723C16.189 17.3731 16.2505 17.3984 16.2967 17.443C16.343 17.4876 16.3705 17.5481 16.3737 17.6122C16.3769 17.6764 16.3555 17.7396 16.3139 17.7886ZM16.1178 16.1065C15.9882 16.1065 15.8599 16.0811 15.7402 16.0315C15.6205 15.982 15.5117 15.9094 15.4201 15.8178C15.3284 15.7263 15.2557 15.6175 15.2061 15.4979C15.1565 15.3782 15.1309 15.2499 15.1308 15.1204C15.1308 14.9908 15.1562 14.8625 15.2058 14.7428C15.2553 14.6231 15.3279 14.5143 15.4195 14.4227C15.5111 14.331 15.6198 14.2583 15.7394 14.2087C15.8591 14.159 15.9874 14.1335 16.1169 14.1334C16.3786 14.1333 16.6296 14.2371 16.8146 14.4221C16.9997 14.607 17.1038 14.8579 17.1039 15.1195C17.104 15.3812 17.0002 15.6321 16.8152 15.8172C16.6303 16.0023 16.3794 16.1064 16.1178 16.1065Z" fill="white"/>
</svg>
