<svg width="26" height="26" viewBox="0 0 26 26" fill="none" xmlns="http://www.w3.org/2000/svg">
<rect width="26" height="26" rx="2" fill="#0571FE" fill-opacity="0.1"/>
<g clip-path="url(#clip0_121_54)">
<path d="M17.1241 8.87586C16.2157 7.96657 15.0325 7.38271 13.7583 7.21499C12.484 7.04727 11.1901 7.30508 10.0774 7.94836" stroke="#0571FE" stroke-linecap="round" stroke-linejoin="round"/>
<path d="M8.33325 9.5H8.33825" stroke="#0571FE" stroke-linecap="round" stroke-linejoin="round"/>
<path d="M7.33571 11.6117C7.11702 12.5025 7.11147 13.4323 7.31951 14.3256C7.52756 15.2189 7.94333 16.0506 8.53308 16.7531C9.12283 17.4556 9.86994 18.0092 10.7137 18.3688C11.5575 18.7284 12.4743 18.884 13.3895 18.8229C14.3047 18.7618 15.1925 18.4857 15.981 18.0171C16.7695 17.5485 17.4364 16.9005 17.9275 16.1258C18.4186 15.3512 18.7202 14.4716 18.8076 13.5585C18.895 12.6455 18.7659 11.7247 18.4307 10.8708" stroke="#0571FE" stroke-linecap="round" stroke-linejoin="round"/>
<path d="M15.4733 10.5266C15.1376 10.189 14.7365 9.92338 14.2946 9.74607C13.8527 9.56875 13.3793 9.48347 12.9033 9.49543C12.4273 9.50739 11.9588 9.61634 11.5263 9.81562C11.0939 10.0149 10.7067 10.3003 10.3884 10.6544C10.0701 11.0085 9.82733 11.4238 9.67505 11.8749C9.52276 12.3261 9.46413 12.8035 9.50273 13.2781C9.54134 13.7527 9.67636 14.2144 9.89955 14.6349C10.1227 15.0555 10.4294 15.4262 10.8008 15.7241" stroke="#0571FE" stroke-linecap="round" stroke-linejoin="round"/>
<path d="M13 16.5H13.005" stroke="#0571FE" stroke-linecap="round" stroke-linejoin="round"/>
<path d="M16.4942 12.8016C16.526 13.3566 16.425 13.9111 16.1998 14.4194C15.9746 14.9276 15.6316 15.3748 15.1992 15.7241" stroke="#0571FE" stroke-linecap="round" stroke-linejoin="round"/>
<path d="M12.9999 14.1666C13.6443 14.1666 14.1666 13.6443 14.1666 13C14.1666 12.3556 13.6443 11.8333 12.9999 11.8333C12.3556 11.8333 11.8333 12.3556 11.8333 13C11.8333 13.6443 12.3556 14.1666 12.9999 14.1666Z" stroke="#0571FE" stroke-linecap="round" stroke-linejoin="round"/>
<path d="M13.8225 12.1775L17.1242 8.87585" stroke="#0571FE" stroke-linecap="round" stroke-linejoin="round"/>
</g>
<defs>
<clipPath id="clip0_121_54">
<rect width="14" height="14" fill="white" transform="translate(6 6)"/>
</clipPath>
</defs>
</svg>
