<svg width="26" height="26" viewBox="0 0 26 26" fill="none" xmlns="http://www.w3.org/2000/svg">
<rect width="26" height="26" rx="2" fill="#0571FE" fill-opacity="0.1"/>
<path d="M18.6759 16.5L14.0092 8.33332C13.9075 8.15377 13.7599 8.00443 13.5816 7.90053C13.4033 7.79663 13.2006 7.74188 12.9942 7.74188C12.7879 7.74188 12.5852 7.79663 12.4069 7.90053C12.2286 8.00443 12.081 8.15377 11.9792 8.33332L7.31258 16.5C7.20973 16.6781 7.1558 16.8803 7.15625 17.086C7.15671 17.2916 7.21153 17.4936 7.31517 17.6712C7.41881 17.8489 7.56758 17.996 7.7464 18.0976C7.92522 18.1993 8.12774 18.2518 8.33341 18.25H17.6667C17.8714 18.2498 18.0725 18.1957 18.2497 18.0932C18.4269 17.9908 18.574 17.8435 18.6762 17.6661C18.7785 17.4888 18.8323 17.2877 18.8322 17.083C18.8322 16.8783 18.7783 16.6773 18.6759 16.5Z" stroke="#0571FE" stroke-linecap="round" stroke-linejoin="round"/>
<path d="M13 11.25V13.5833" stroke="#0571FE" stroke-linecap="round" stroke-linejoin="round"/>
<path d="M13 15.9167H13.005" stroke="#0571FE" stroke-linecap="round" stroke-linejoin="round"/>
</svg>
