<svg width="28" height="28" viewBox="0 0 28 28" fill="none" xmlns="http://www.w3.org/2000/svg">
<rect x="0.5" y="0.5" width="27" height="27" rx="8.5" fill="#04080D"/>
<rect x="0.5" y="0.5" width="27" height="27" rx="8.5" stroke="#041730"/>
<g clip-path="url(#clip0_121_4225)">
<path d="M21.9102 10.7103C21.9102 10.5703 21.7002 9.45029 21.2102 8.96029C20.5802 8.26029 19.8802 8.19029 19.5302 8.19029H19.4602C17.2902 8.05029 14.0702 8.05029 14.0002 8.05029C14.0002 8.05029 10.7102 8.05029 8.5402 8.19029H8.4702C8.1202 8.19029 7.4202 8.26029 6.7902 8.96029C6.3002 9.52029 6.0902 10.6403 6.0902 10.7803C6.0902 10.8503 5.9502 12.1103 5.9502 13.4403V14.6303C5.9502 15.9603 6.0902 17.2203 6.0902 17.2903C6.0902 17.4303 6.3002 18.5503 6.7902 19.0403C7.3502 19.6703 8.0502 19.7403 8.4702 19.8103H8.6802C9.9402 19.9503 13.7902 19.9503 13.9302 19.9503C13.9302 19.9503 17.2202 19.9503 19.3902 19.8103H19.4602C19.8102 19.7403 20.5102 19.6703 21.1402 19.0403C21.6302 18.4803 21.8402 17.3603 21.8402 17.2203C21.8402 17.1503 21.9802 15.8903 21.9802 14.5603V13.3703C22.0502 12.1103 21.9102 10.7803 21.9102 10.7103ZM16.7302 14.1403L12.5302 16.3803C12.4602 16.3803 12.4602 16.4503 12.3902 16.4503C12.3202 16.4503 12.2502 16.4503 12.2502 16.3803C12.1802 16.3103 12.1102 16.2403 12.1102 16.1003V11.5503C12.1102 11.4103 12.1802 11.3403 12.2502 11.2703C12.3202 11.2003 12.4602 11.2003 12.6002 11.2703L16.8002 13.5103C16.9402 13.5803 17.0102 13.6503 17.0102 13.7903C17.0102 13.9303 16.8702 14.0703 16.7302 14.1403Z" fill="white"/>
</g>
<defs>
<clipPath id="clip0_121_4225">
<rect width="16.8" height="16.8" fill="white" transform="translate(5.6001 5.6001)"/>
</clipPath>
</defs>
</svg>
